<svg xmlns="http://www.w3.org/2000/svg" xmlns:xlink="http://www.w3.org/1999/xlink" version="1.1" x="0px" y="0px" width="100px" height="100px" viewBox="0 0 100 100" enable-background="new 0 0 100 100" xml:space="preserve">
<g id="Captions">
</g>
<g id="Your_Icon">
	<path d="M90.909,8.358h-6.114V7.052c0-1.108,0.205-1.378,0.292-1.477l1.723-2.088c0.656-0.656,0.87-1.477,0.575-2.191   c-0.296-0.716-1.021-1.14-1.944-1.14H11.789c-1.272,0-1.725,0.764-1.861,1.09c-0.141,0.344-0.365,1.248,0.653,2.264l2.283,2.174   c0.457,0.459,0.825,1.15,0.839,1.368v1.123c-0.145,0.093-0.396,0.183-0.548,0.183H6.32c-0.816,0-2.187,0.363-2.187,2.796v5.469   c0,2.325,1.371,2.672,2.187,2.672h6.834c0.14,0.004,0.413,0.134,0.55,0.253v77.733c0,2.325,1.371,2.673,2.187,2.673h65.452   c1.239,0,3.453-0.892,3.453-2.673V19.357v-0.062h6.114c1.238,0,3.452-0.895,3.452-2.672v-5.469   C94.361,9.471,92.283,8.358,90.909,8.358z M83.767,2.888l-0.699,0.848c-0.903,0.905-1.009,2.324-1.009,3.316L82.056,8.64   c-0.005,0.319,0.005,0.704,0.114,1.084H15.986c0.271-0.369,0.45-0.798,0.45-1.307V7.052c0-1.311-1.03-2.691-1.663-3.322   l-0.878-0.842H83.767z M91.63,16.33c-0.196,0.116-0.535,0.231-0.721,0.231h-6.835c-0.727,0-1.181,0.306-1.436,0.564   c-0.603,0.612-0.592,1.419-0.58,2.007V96.99c-0.193,0.115-0.535,0.231-0.717,0.231h-6.118V19.877l-0.477-1.816   c-0.535-1.922-2.233-3.314-4.041-3.314c-2.206,0-3.809,2.024-3.809,4.814c0,0.378,0.307,0.683,0.684,0.683s0.685-0.305,0.685-0.683   c0-1.998,1.026-3.447,2.44-3.447c1.186,0,2.356,0.994,2.722,2.311l0.43,1.544v77.252H62.919V19.877l-0.479-1.816   c-0.532-1.922-2.232-3.314-4.036-3.314c-2.208,0-3.809,2.024-3.809,4.814c0,0.378,0.302,0.683,0.682,0.683   c0.378,0,0.683-0.305,0.683-0.683c0-1.998,1.027-3.447,2.444-3.447c1.184,0,2.353,0.994,2.719,2.311l0.428,1.544v77.252h-9.568   V19.877l-0.479-1.816c-0.533-1.922-2.232-3.314-4.038-3.314c-2.208,0-3.809,2.024-3.809,4.814c0,0.378,0.305,0.683,0.684,0.683   c0.377,0,0.683-0.305,0.683-0.683c0-1.998,1.028-3.447,2.442-3.447c1.186,0,2.354,0.994,2.721,2.311l0.429,1.544v77.252h-9.571   V19.877l-0.477-1.816c-0.534-1.922-2.234-3.314-4.038-3.314c-2.208,0-3.811,2.024-3.811,4.814c0,0.378,0.307,0.683,0.685,0.683   c0.376,0,0.684-0.305,0.684-0.683c0-1.998,1.026-3.447,2.442-3.447c1.184,0,2.354,0.994,2.72,2.311l0.429,1.544v77.252H28.742   V19.877l-0.479-1.816c-0.533-1.922-2.233-3.314-4.038-3.314c-2.208,0-3.809,2.024-3.809,4.814c0,0.378,0.306,0.683,0.683,0.683   c0.377,0,0.683-0.305,0.683-0.683c0-1.998,1.028-3.447,2.443-3.447c1.185,0,2.354,0.994,2.721,2.311l0.427,1.544v77.252H16.436   V19.357c0-1.705-1.943-2.795-3.281-2.795H6.868v-5.407c0-0.021,0-0.041,0-0.062h6.288c0.174,0,0.36-0.018,0.548-0.049v0.049h70.371   h0.721h6.114c0.177,0.004,0.537,0.163,0.721,0.301V16.33z"/>
</g>
</svg>